<?xml version="1.0" encoding="UTF-8"?>
<svg id="Layer_1" data-name="Layer 1" xmlns="http://www.w3.org/2000/svg" viewBox="0 0 1366 768">
  <defs>
    <style>
      .cls-1 {
        fill: #e7ead7;
        stroke-width: 0px;
      }
    </style>
  </defs>
  <g id="Untitled.tiff">
    <g>
      <path class="cls-1" d="M271.28,768c-18.56-14.39-40.08-24.56-58.61-39.09-16.62-13.03-26.48-29.68-40.34-44.82-7.63-8.34-17.85-15.36-26.4-22.81-6.67-5.82-12.09-12.72-18.95-18.08-6.3-4.92-17.28-10.64-21.5-18.47-5.49-10.18,3.71-8.22,10.08-5.48-1.22-7.97-4.36-22.11-7.54-26.18.73.94-3.73.23-4.17-.08-2.56-1.76-2.92-5.16-3.88-7.95-2.57-7.42-3.5-12.05-1.57-19.7,3.3,1.11,6.54,2.3,9.93,3.08.86-6.23,1.77-12.21,1.93-18.5.1-3.9-2.03-15.05.14-18.23,4.79-7.04,11.08,2.07,9.97,4.45,3.43-7.41.42-27.3,6.59-31.68,3.62-2.57,7.73,1.57,11.29-2.87,1.7-2.12,1.93-7.93,2.85-10.66,6.09,3.07,12.01,2.67,13.35,10.03.86,4.72-.72,7.8-4.13,9.9-1.98,1.22-4.88-.19-7.17,1.34-1.57,1.06-2.01,3.37-2.97,4.84-.41.63-3.6,5.26-3.49,6.33.28,2.56,1.73,1.19,3.01,3.41,2.56,4.43,5.74,4.78,1.69,9.78-4,4.93-10.74,1.49-15.09,5.34-5.81,5.14-11.35,24.63-10.74,32.16,2.16-2.05,4.69-2.89,7.4-4.1,6.85,15.41-9.65,28.45.08,44.79,1.73-3.9.68-23.05,9.2-19.34,6.36,2.77,1.92,21.95,1.42,26.8-1.24,12.17.96,17.14,8.86,26.31,6.79,7.89,14.96,16.31,23.86,21.72-2.22-21.39-6.89-39.22-2.17-60.95,4.08-18.79,9.85-37.29,15.1-55.77,1.89-6.65,8.42-18.97,5.98-25.61-1.96-5.34-8.37-10.76-10.69-16.78-2.02-5.23-3.41-13.2,4.54-15.15,6.96-1.71,12.68,7.42,14.63,12.78,4.73-8.95,10.79-22.34,12.75-32.42,1.84-9.42-4.56-16.88-8.98-24.88-1.85-3.35-12.12-18.74-.89-15.74,6.35,1.7,10.89,16.59,15.15,20.94,3.12-7.5,4.64-28.48,2.4-36.41-2.6-9.22-12.75-13.96-15.77-23.44.84-.24,8.65-1.17,9.1-1.45,2.26-1.38-13.48-33.23-15.88-36.04-3.9-4.58-10.08-6.7-14.54-10.58-1.54-1.34-4.33-3.05-4.77-5.27-.9-4.49,2.37-3.91,3.22-6.63.65-2.05,1.93.09,1.82-3.04-.04-1.02-1.97-4.36-2.62-4.96-3.04-2.8-7.45-.29-10.06-2.82-3.83-3.73,1.35-10.38-3.31-14.61-3.92-3.56-10.54-2.19-15.12-5.75,9.56-6.93,3.5-2.56,2.8-14,5.56,1.14,7.66,7.89,11.66,8.8,2.2.5,4.66-2.54,7.73-4.24,2.39,5.82-.79,7.52.1,12.9.11.68,5.87,10.96,7.78,10.92,3.09-.06,3.9-6.6,9.38-3.62,2.97,1.62,5.45,7.98,5.62,11.27.24,4.63-2.63,7.32-1.91,11.7.67,4.1,5.8,10.09,8.35,13.04.32-3.91,1.7-5.77,3.64-9.12,6.5,5.5,10.77,16.03,10.14,24.94-.27,3.77-2.2,6.42-1.75,10.28.52,4.54,4.19,9.98,6.08,14.17,2.16-4.91,4.64-11.46,11.32-10.36,6.73,1.12,6.01,6.27,3.97,11.08-2.39,5.67-9.46,9.98-10.66,16.08-.61,3.11.72,19.83,3.17,21.25,1.88,1.09,6.06-4.52,7.68-5.52,3.98-2.48,5.9-2.41,10.54-2.96-.31,16.59-17.93,26.26-23.79,41.06-1.55,3.91-8.82,19.61-7.56,23.75,1.54,5.05,8.97.23,13.86,1.03,4.78.78,10.49,4.7,5.47,10.45-4.36,4.99-15.67.76-21.32,3.23-10.25,4.47-14.46,30.14-17.99,40.24-3.55,10.17-11.48,21.03,3.03,20.85,15.71-.19,31.38-5.37,45.69-11.46,6.47-2.75,15.31-5.05,18.24-11.22,3.17-6.67.14-17.76,2.04-24.96,2.04-7.74,7.73-9.91,13.3-2.53,3.35,4.44.22,14.97,3.66,17.8,2.07,1.71,26.24-17.33,27.12-20.4,1.26-4.37-5.07-16.37-6.54-20.96-2.21-6.88-3.27-10.2-1.1-16.94,10.6,6.44,11.79,20.66,14.98,32.36,7.49-4.28,17.41-15.28,22.6-22.44,5.64-7.77,2.12-12.06-.8-21.1-.99-3.07-7.1-20.65,3.03-16.18,4.87,2.15,6.86,20.14,8.62,24.59,7.4-5.45,20.65-21.48,21.49-30.54,1.19-12.76-9.36-21.54-1.23-32.99,8.09,6.03,7.21,13.97,8.07,23.71,8.98-11.64,18.04-31.58,17.26-46.16-.44-8.14-2.12-13.37,4.21-17.67,1.7-1.15,3.09,1.23,5.06-.39,1.41-1.16,1.41-5.99,1.73-7.8,2.03-11.22-1.56-22.49.06-32.88,1.85-.4,2.84-1.34,2.96-2.82.36-1.6.35-3.23-.04-4.89.47-2.6.3-5.81.3-8.46,0-8.61-3.01-12.81-5.67-20.26-1.78-4.98-1.56-1.99-1.07-5.61.27-1.99,4.83-.81,5.49-1.91,3.33-5.58-3.66-15.26-5.55-19.65-1.5-3.47-2.48-3.1-1.66-6.36.64-2.57,3.54-1.82,4.1-3.17,1.54-3.7-2.15-7.86-.83-11.25,2.57-6.56,3.27-.83,7.01-.05,3.71.78,9.35-1.09,9.81,4.41.4,4.71-6.32,6.73-7.33,11.41-.87,4.01,1.62,11.6,2.17,15.71,3.71-2.57,6.48-3.15,10.98-3.93-1.56,8.35-6.75,9.68-9.64,17.28-2.44,6.42-.74,14.41-.5,21.2,2.06-2.52,7.42-8.95,10.57-4.63,2.15,2.95-5.1,11.45-6.87,14.3-6.74,10.85-4.85,25.84-5.29,38.47,5.09-3.89,8.47-6.32,14.8-7.81.52,8.13-2.64,12.07-9.09,17.67-2.42,2.1-6.93,3.59-8.92,5.74-7.87,8.51-10.74,28.55-14.73,39.37,4.56-5.3,7.49-8.67,13.98-11.53,3.08,17.12-11.2,16.59-20.88,25.4-5.53,5.03-9.49,15.91-13.24,22.4-4.84,8.39-7.76,8.98.84,10.91,3.74.84,14.61,1.09,9.35,7.61-2.91,3.61-15.77,1.28-20.08,2.44-11.97,3.22-27.58,22.46-33.91,33.01,5.1,1.89,20.46.34,20.47,8.36,0,8.48-13.49,4.35-18.36,3.18-2-.48-9.08-4.03-10.73-3.61-2.87.74-6.39,5.49-8.81,7.56-8.45,7.22-16.64,8.78-7.12,16.71,3.67,3.05,18.97,15.19,8.55,19.99-6.97,3.21-17.06-12.7-22.9-14.99-7.93-3.12-16.2,6.13-23.46,10.26-9.85,5.6-20.26,10.25-31,13.84-10.56,3.54-21.34,5.57-32.3,7.44-6.01,1.03-17.76-.66-21.52,3.93-4.65,5.68-6.15,21.93-7.72,28.72-2.63,11.35-4.38,22.96-4.15,34.64.38,19.07,2.97,34.97,16.89,47.88,6.35,5.88,1.28,4.71,3.23,11.32,2.03,6.87,15.19,17.43,21.07,21.21,5.49-11.54,1.22-24.33,8.58-35.94,3.49-5.51,10.35-10.06,12.3-16.4,1.97-6.43-.58-14.23,1.04-20.82,1.39-5.69,3.39-8.95,9.14-4.89,3.77,2.67,3.08,12.76,6.91,14.13,4.21,1.5,18-6.82,21.83-8.35,7.76-3.09,15.51-6.23,23.33-9.17-2.33-2.68-4.32-2.76-6.23-4.09-.82-.57-3.77.37-4.6-1.16-.86-1.57,7.54-12.98,8.83-15.05,3.09-4.95,9.98-10.35,13.57-2.67,1.95,4.16-5.08,16.43-5.93,21.22,10.1-.28,18.28-4.07,28.2-1.27-13.91,10.62-34.92,10.41-51.21,16.58,4.99,4.15,14.9,12.26,4.1,16.08-8,2.83-16.85-8.66-25.76-6.23-4.99,1.36-12.48,8.62-16.41,11.99-6.31,5.42-5.02,2.42-3.52,7.93,1.1,4.05,6.62,3.82,4.7,10.05-.99,3.21-3.31,4.54-6.36,5.51-3.29,1.05-8.54-1.8-11.04.33-2.86,2.44-.95,9.24-1.26,12.52-1.12,12.03-7.14,13.69,3.77,21.64,19.39,14.14,39.98,26.72,60.06,39.86h-13ZM238.18,652.89c-.83,2.75-1.95,4.59-.8,7.27.88-1.13,1.75-2.25,2.67-3.43-.81-1.68-1.34-2.76-1.87-3.85ZM228.96,685.32c-1.31-1.24-2.61-1.24-3.91,0,.63.27,1.25.55,1.92.84.72-.31,1.35-.57,1.98-.84Z"/>
      <path class="cls-1" d="M240.04,656.74c-.81-1.68-1.34-2.76-1.87-3.85-.83,2.75-1.95,4.59-.8,7.27.88-1.13,1.75-2.25,2.67-3.43Z"/>
      <path class="cls-1" d="M226.98,686.16c.72-.31,1.35-.57,1.98-.84-1.31-1.24-2.61-1.24-3.91,0,.63.27,1.25.55,1.92.84Z"/>
    </g>
  </g>
</svg>