<?xml version="1.0" encoding="UTF-8"?>
<svg id="Layer_1" data-name="Layer 1" xmlns="http://www.w3.org/2000/svg" viewBox="0 0 1366 768">
  <defs>
    <style>
      .cls-1 {
        fill: #e7ead7;
        stroke-width: 0px;
      }
    </style>
  </defs>
  <g id="Untitled.tiff">
    <g>
      <path class="cls-1" d="M1066.93,768c20.07-13.14,40.67-25.72,60.06-39.86,10.91-7.95,4.89-9.61,3.77-21.64-.31-3.28,1.61-10.08-1.26-12.52-2.5-2.13-7.75.71-11.04-.33-3.05-.97-5.37-2.3-6.36-5.51-1.92-6.23,3.6-6,4.7-10.05,1.49-5.51,2.79-2.52-3.52-7.93-3.93-3.37-11.43-10.63-16.41-11.99-8.91-2.43-17.76,9.06-25.76,6.23-10.8-3.82-.89-11.92,4.1-16.08-16.29-6.17-37.29-5.96-51.21-16.58,9.92-2.8,18.1.99,28.2,1.27-.85-4.79-7.87-17.05-5.93-21.22,3.59-7.68,10.48-2.28,13.57,2.67,1.29,2.07,9.69,13.48,8.83,15.05-.84,1.53-3.78.59-4.6,1.16-1.92,1.33-3.9,1.4-6.23,4.09,7.82,2.94,15.57,6.08,23.33,9.17,3.83,1.53,17.62,9.85,21.83,8.35,3.83-1.36,3.13-11.46,6.91-14.13,5.75-4.06,7.75-.8,9.14,4.89,1.62,6.6-.94,14.39,1.04,20.82,1.94,6.34,8.81,10.89,12.3,16.4,7.36,11.61,3.09,24.41,8.58,35.94,5.89-3.78,19.05-14.34,21.07-21.21,1.95-6.62-3.12-5.44,3.23-11.32,13.92-12.91,16.52-28.81,16.89-47.88.23-11.68-1.52-23.29-4.15-34.64-1.58-6.79-3.08-23.04-7.72-28.72-3.76-4.59-15.51-2.9-21.52-3.93-10.95-1.87-21.74-3.91-32.3-7.44-10.74-3.6-21.16-8.25-31-13.84-7.26-4.13-15.53-13.38-23.46-10.26-5.85,2.3-15.93,18.21-22.9,14.99-10.42-4.8,4.88-16.94,8.55-19.99,9.52-7.93,1.33-9.5-7.12-16.71-2.42-2.07-5.94-6.82-8.81-7.56-1.65-.42-8.73,3.13-10.73,3.61-4.86,1.17-18.36,5.3-18.36-3.18,0-8.01,15.37-6.46,20.47-8.36-6.34-10.55-21.94-29.8-33.91-33.01-4.31-1.16-17.17,1.17-20.08-2.44-5.26-6.52,5.61-6.77,9.35-7.61,8.6-1.93,5.69-2.53.84-10.91-3.75-6.49-7.71-17.37-13.24-22.4-9.69-8.81-23.96-8.27-20.88-25.4,6.49,2.86,9.42,6.23,13.98,11.53-3.99-10.81-6.86-30.86-14.73-39.37-1.99-2.15-6.5-3.65-8.92-5.74-6.45-5.59-9.61-9.53-9.09-17.67,6.33,1.49,9.7,3.92,14.8,7.81-.44-12.63,1.45-27.62-5.29-38.47-1.77-2.85-9.02-11.35-6.87-14.3,3.15-4.32,8.51,2.11,10.57,4.63.24-6.79,1.94-14.77-.5-21.2-2.89-7.6-8.08-8.93-9.64-17.28,4.5.78,7.27,1.36,10.98,3.93.55-4.11,3.04-11.71,2.17-15.71-1.01-4.68-7.73-6.7-7.33-11.41.47-5.51,6.1-3.64,9.81-4.41,3.74-.78,4.44-6.51,7.01.05,1.33,3.39-2.36,7.54-.83,11.25.56,1.35,3.46.6,4.1,3.17.81,3.26-.16,2.89-1.66,6.36-1.9,4.38-8.88,14.07-5.55,19.65.66,1.11,5.22-.08,5.49,1.91.49,3.62.71.63-1.07,5.61-2.66,7.45-5.67,11.65-5.67,20.26,0,2.65-.17,5.86.3,8.46-.39,1.66-.4,3.29-.04,4.89.12,1.48,1.11,2.42,2.96,2.82,1.62,10.39-1.97,21.66.06,32.88.33,1.81.33,6.64,1.73,7.8,1.97,1.62,3.36-.76,5.06.39,6.32,4.29,4.64,9.52,4.21,17.67-.78,14.58,8.28,34.52,17.26,46.16.86-9.74-.02-17.69,8.07-23.71,8.14,11.45-2.41,20.23-1.23,32.99.84,9.06,14.09,25.09,21.49,30.54,1.76-4.45,3.75-22.44,8.62-24.59,10.13-4.47,4.02,13.11,3.03,16.18-2.92,9.03-6.44,13.32-.8,21.1,5.2,7.16,15.11,18.16,22.6,22.44,3.19-11.7,4.38-25.92,14.98-32.36,2.17,6.74,1.11,10.06-1.1,16.94-1.47,4.6-7.8,16.59-6.54,20.96.88,3.07,25.05,22.1,27.12,20.4,3.44-2.84.31-13.36,3.66-17.8,5.57-7.38,11.26-5.2,13.3,2.53,1.9,7.2-1.13,18.29,2.04,24.96,2.93,6.17,11.78,8.47,18.24,11.22,14.31,6.09,29.97,11.27,45.69,11.46,14.51.18,6.58-10.69,3.03-20.85-3.53-10.11-7.74-35.77-17.99-40.24-5.65-2.46-16.96,1.76-21.32-3.23-5.02-5.74.69-9.67,5.47-10.45,4.89-.8,12.32,4.01,13.86-1.03,1.26-4.14-6.01-19.85-7.56-23.75-5.87-14.8-23.48-24.48-23.79-41.06,4.64.55,6.56.48,10.54,2.96,1.62,1.01,5.8,6.61,7.68,5.52,2.45-1.42,3.78-18.13,3.17-21.25-1.2-6.1-8.27-10.41-10.66-16.08-2.03-4.82-2.75-9.97,3.97-11.08,6.67-1.11,9.16,5.45,11.32,10.36,1.89-4.19,5.56-9.63,6.08-14.17.44-3.86-1.49-6.51-1.75-10.28-.63-8.91,3.63-19.44,10.14-24.94,1.94,3.36,3.32,5.21,3.64,9.12,2.55-2.95,7.68-8.94,8.35-13.04.71-4.38-2.15-7.07-1.91-11.7.17-3.28,2.65-9.65,5.62-11.27,5.48-2.98,6.29,3.56,9.38,3.62,1.91.04,7.66-10.23,7.78-10.92.89-5.38-2.29-7.08.1-12.9,3.08,1.69,5.53,4.74,7.73,4.24,4-.91,6.1-7.65,11.66-8.8-.7,11.44-6.76,7.07,2.8,14-4.58,3.56-11.2,2.19-15.12,5.75-4.66,4.22.52,10.88-3.31,14.61-2.6,2.54-7.02.03-10.06,2.82-.65.6-2.59,3.95-2.62,4.96-.11,3.13,1.17.99,1.82,3.04.86,2.71,4.12,2.14,3.22,6.63-.44,2.22-3.23,3.93-4.77,5.27-4.45,3.88-10.64,6-14.54,10.58-2.4,2.82-18.14,34.66-15.88,36.04.45.28,8.26,1.21,9.1,1.45-3.03,9.48-13.17,14.22-15.77,23.44-2.24,7.93-.71,28.91,2.4,36.41,4.26-4.35,8.8-19.25,15.15-20.94,11.23-3,.96,12.39-.89,15.74-4.42,8-10.82,15.47-8.98,24.88,1.96,10.08,8.02,23.47,12.75,32.42,1.95-5.35,7.67-14.49,14.63-12.78,7.95,1.95,6.55,9.92,4.54,15.15-2.32,6.02-8.73,11.44-10.69,16.78-2.44,6.64,4.09,18.96,5.98,25.61,5.25,18.48,11.02,36.99,15.1,55.77,4.72,21.73.05,39.56-2.17,60.95,8.9-5.41,17.07-13.84,23.86-21.72,7.9-9.17,10.1-14.15,8.86-26.31-.5-4.85-4.93-24.03,1.42-26.8,8.52-3.71,7.47,15.44,9.2,19.34,9.73-16.34-6.76-29.37.08-44.79,2.71,1.21,5.24,2.05,7.4,4.1.61-7.53-4.93-27.01-10.74-32.16-4.35-3.85-11.09-.41-15.09-5.34-4.06-5-.87-5.36,1.69-9.78,1.28-2.22,2.73-.85,3.01-3.41.12-1.06-3.07-5.69-3.49-6.33-.97-1.48-1.4-3.79-2.97-4.84-2.29-1.54-5.19-.12-7.17-1.34-3.41-2.09-4.99-5.18-4.13-9.9,1.34-7.36,7.26-6.97,13.35-10.03.92,2.73,1.14,8.53,2.85,10.66,3.56,4.44,7.67.3,11.29,2.87,6.17,4.37,3.16,24.27,6.59,31.68-1.11-2.39,5.18-11.5,9.97-4.45,2.16,3.18.04,14.33.14,18.23.16,6.3,1.07,12.28,1.93,18.5,3.39-.78,6.63-1.97,9.93-3.08,1.93,7.64,1,12.28-1.57,19.7-.97,2.79-1.32,6.19-3.88,7.95-.45.31-4.91,1.02-4.17.08-3.18,4.07-6.32,18.21-7.54,26.18,6.37-2.74,15.57-4.7,10.08,5.48-4.22,7.83-15.2,13.55-21.5,18.47-6.86,5.36-12.28,12.26-18.95,18.08-8.55,7.46-18.77,14.48-26.4,22.81-13.85,15.14-23.72,31.79-40.34,44.82-18.53,14.53-40.05,24.7-58.61,39.09h-13ZM1111.17,656.74c.91,1.17,1.79,2.3,2.67,3.43,1.15-2.69.03-4.53-.8-7.27-.53,1.09-1.05,2.17-1.87,3.85ZM1124.23,686.16c.67-.29,1.3-.57,1.92-.84-1.29-1.24-2.59-1.24-3.91,0,.63.27,1.26.54,1.98.84Z"/>
      <path class="cls-1" d="M1111.17,656.74c.81-1.68,1.34-2.76,1.87-3.85.83,2.75,1.95,4.59.8,7.27-.88-1.13-1.75-2.25-2.67-3.43Z"/>
      <path class="cls-1" d="M1124.23,686.16c-.72-.31-1.35-.57-1.98-.84,1.31-1.24,2.61-1.24,3.91,0-.63.27-1.25.55-1.92.84Z"/>
    </g>
  </g>
</svg>