<?xml version="1.0" encoding="UTF-8"?>
<svg id="v4" xmlns="http://www.w3.org/2000/svg" viewBox="0 0 659 191">
  <defs>
    <style>
      .cls-1 {
        fill: #3e4344;
        stroke-width: 0px;
      }
    </style>
  </defs>
  <g>
    <path class="cls-1" d="M208.87,38.17c3.04,0,5.66.27,7.87.81,2.21.54,4.09,1.25,5.63,2.13s2.79,1.9,3.73,3.05c.94,1.15,1.67,2.33,2.19,3.55.51,1.22.86,2.43,1.04,3.64s.27,2.33.27,3.35c0,1.31-.21,2.79-.63,4.41-.42,1.63-1.17,3.21-2.26,4.74-1.09,1.53-2.58,2.91-4.47,4.14-1.89,1.23-4.29,2.11-7.21,2.64l15.43,20.88h-9.61l-15.07-20.34h-5.81v20.34h-7.86v-53.34h16.75ZM199.97,41.69v25.94h4.48c2.56,0,4.87-.23,6.94-.7,2.07-.47,3.84-1.22,5.31-2.26s2.6-2.39,3.39-4.05,1.18-3.68,1.18-6.04c0-2.68-.48-4.86-1.43-6.55-.96-1.69-2.22-3-3.78-3.93-1.57-.93-3.35-1.57-5.36-1.9-2.01-.34-4.07-.5-6.17-.5h-4.56Z"/>
    <path class="cls-1" d="M247.93,60.13c-1.15,0-2.15.04-3,.11-.85.07-1.62.17-2.31.29-.69.12-1.34.26-1.94.42-.6.16-1.2.33-1.79.5l-.86-2.33c2.01-.74,4.11-1.27,6.3-1.6,2.19-.32,4.26-.48,6.22-.48,2.51,0,4.57.13,6.19.39s2.88.7,3.78,1.31c.91.61,1.54,1.42,1.88,2.44.35,1.02.52,2.29.52,3.82v26.51h-11.77c-3.21,0-5.94-.34-8.2-1-2.26-.67-4.11-1.57-5.54-2.71-1.43-1.14-2.49-2.44-3.16-3.91-.67-1.47-1-3.02-1-4.65,0-2.01.32-3.78.95-5.31.63-1.53,1.55-2.82,2.74-3.86,1.2-1.04,2.65-1.83,4.38-2.37,1.72-.54,3.68-.81,5.88-.81,1.2,0,2.55.2,4.07.61,1.52.41,2.97,1.02,4.36,1.83v-4.49c0-.55-.06-1.11-.18-1.68-.12-.57-.43-1.07-.93-1.52-.5-.44-1.27-.81-2.31-1.1s-2.47-.43-4.29-.43ZM255.65,88.58v-16.61c-1.15-.69-2.34-1.21-3.59-1.54-1.24-.34-2.62-.5-4.13-.5-1.2,0-2.25.22-3.17.65-.92.43-1.69,1.04-2.31,1.83-.62.79-1.09,1.73-1.42,2.83s-.48,2.32-.48,3.66c0,.38.02.88.05,1.51s.16,1.29.36,2.01c.2.72.51,1.44.93,2.17.42.73,1.01,1.39,1.78,1.99.77.6,1.73,1.08,2.91,1.45,1.17.37,2.61.56,4.3.56h4.77Z"/>
    <path class="cls-1" d="M292.85,88.72c-1.55.67-2.98,1.23-4.27,1.67s-2.49.79-3.61,1.06-2.16.45-3.14.56c-.98.11-1.91.16-2.8.16-2.25,0-3.96-.58-5.15-1.74-1.18-1.16-1.78-3.04-1.78-5.65v-27.05h7.28v25.94c0,.55.05,1.09.16,1.63s.3,1.02.57,1.45c.27.43.65.78,1.13,1.06.48.27,1.1.41,1.87.41,1.22,0,2.64-.15,4.25-.45s3.44-.91,5.47-1.85v-28.2h7.25v33.79h-7.25v-2.8Z"/>
    <path class="cls-1" d="M316.99,60.52c1.53-.67,2.94-1.23,4.23-1.67s2.5-.8,3.62-1.08c1.12-.27,2.17-.47,3.14-.57s1.91-.16,2.82-.16c2.25,0,3.96.59,5.15,1.76,1.18,1.17,1.78,3.06,1.78,5.67v27.05h-7.28v-25.94c0-.53-.05-1.06-.16-1.61s-.3-1.04-.59-1.47-.68-.78-1.17-1.06c-.49-.27-1.11-.41-1.85-.41-1.22,0-2.63.15-4.23.45-1.6.3-3.42.91-5.45,1.85v28.2h-7.28v-33.79h7.28v2.8Z"/>
    <path class="cls-1" d="M358.89,60.13c-1.15,0-2.15.04-3,.11-.85.07-1.62.17-2.31.29-.69.12-1.34.26-1.94.42-.6.16-1.2.33-1.79.5l-.86-2.33c2.01-.74,4.11-1.27,6.3-1.6,2.19-.32,4.26-.48,6.22-.48,2.51,0,4.57.13,6.19.39s2.87.7,3.78,1.31c.91.61,1.54,1.42,1.88,2.44.35,1.02.52,2.29.52,3.82v26.51h-11.77c-3.21,0-5.94-.34-8.2-1s-4.11-1.57-5.54-2.71-2.49-2.44-3.16-3.91c-.67-1.47-1-3.02-1-4.65,0-2.01.32-3.78.95-5.31.63-1.53,1.55-2.82,2.74-3.86,1.2-1.04,2.65-1.83,4.38-2.37,1.72-.54,3.68-.81,5.88-.81,1.2,0,2.55.2,4.07.61,1.52.41,2.97,1.02,4.36,1.83v-4.49c0-.55-.06-1.11-.18-1.68-.12-.57-.43-1.07-.93-1.52-.5-.44-1.27-.81-2.31-1.1s-2.47-.43-4.29-.43ZM366.6,88.58v-16.61c-1.15-.69-2.34-1.21-3.59-1.54-1.24-.34-2.62-.5-4.13-.5-1.2,0-2.25.22-3.17.65-.92.43-1.69,1.04-2.31,1.83-.62.79-1.09,1.73-1.42,2.83s-.48,2.32-.48,3.66c0,.38.02.88.05,1.51s.16,1.29.36,2.01c.2.72.51,1.44.93,2.17.42.73,1.01,1.39,1.78,1.99.77.6,1.73,1.08,2.91,1.45,1.17.37,2.61.56,4.3.56h4.77Z"/>
    <path class="cls-1" d="M435.05,38.17v3.52h-24.75v16.18h24v3.52h-24v30.13h-7.86v-53.34h32.61Z"/>
    <path class="cls-1" d="M448.32,60.38c.96-.67,1.8-1.22,2.53-1.65.73-.43,1.38-.77,1.96-1.02s1.11-.42,1.6-.52c.49-.1.97-.14,1.45-.14,1.87,0,3.25.65,4.16,1.94.91,1.29,1.45,3.12,1.61,5.49l-6.28,1.87c-.24-1.72-.56-2.94-.97-3.66-.41-.72-1.04-1.08-1.9-1.08-.5,0-1.09.11-1.78.32s-1.48.57-2.39,1.08v28.52h-7.28v-33.79h7.28v2.65Z"/>
    <path class="cls-1" d="M480.65,57.04c2.44,0,4.5.45,6.19,1.35,1.69.9,3.06,2.11,4.13,3.64,1.06,1.53,1.83,3.29,2.3,5.29.47,2,.7,4.11.7,6.33v1.69h-22.1c0,1.34.22,2.79.65,4.34s1.13,2.99,2.1,4.3,2.22,2.41,3.77,3.28,3.44,1.31,5.69,1.31h7.46v2.94h-7.57c-3.35,0-6.24-.38-8.66-1.15-2.43-.77-4.42-1.88-5.99-3.34-1.57-1.46-2.72-3.24-3.46-5.35-.74-2.1-1.11-4.51-1.11-7.21,0-2.25.35-4.42,1.06-6.53.71-2.1,1.73-3.96,3.09-5.58,1.35-1.61,3.01-2.91,4.99-3.87,1.97-.97,4.24-1.45,6.8-1.45ZM480.29,60.31c-1.48,0-2.75.34-3.8,1-1.05.67-1.92,1.56-2.6,2.67s-1.18,2.4-1.51,3.87-.5,3-.52,4.57h15.17v-1.54c-.05-1.39-.17-2.71-.38-3.98-.2-1.27-.56-2.39-1.06-3.37s-1.18-1.76-2.03-2.35c-.85-.59-1.94-.88-3.28-.88Z"/>
    <path class="cls-1" d="M511.5,91.48l-.04.04-15.57-33.79h7.32l8.25,18.01,3.05,7.82,9.79-25.83h3.48l-17.79,46.78h-3.44l4.95-13.02Z"/>
    <path class="cls-1" d="M540.3,60.52c1.53-.67,2.94-1.23,4.23-1.67s2.5-.8,3.62-1.08c1.12-.27,2.17-.47,3.14-.57s1.91-.16,2.82-.16c2.25,0,3.96.59,5.15,1.76,1.18,1.17,1.78,3.06,1.78,5.67v27.05h-7.28v-25.94c0-.53-.05-1.06-.16-1.61s-.3-1.04-.57-1.47c-.28-.43-.66-.78-1.15-1.06-.49-.27-1.11-.41-1.85-.41-1.22,0-2.64.15-4.25.45s-3.44.91-5.47,1.85v28.2h-7.25v-53.34h7.25v22.35Z"/>
    <path class="cls-1" d="M584.28,57.04c2.44,0,4.5.45,6.19,1.35,1.69.9,3.06,2.11,4.13,3.64,1.06,1.53,1.83,3.29,2.3,5.29.47,2,.7,4.11.7,6.33v1.69h-22.1c0,1.34.22,2.79.65,4.34.43,1.55,1.13,2.99,2.1,4.3s2.22,2.41,3.77,3.28,3.44,1.31,5.69,1.31h7.46v2.94h-7.57c-3.35,0-6.24-.38-8.66-1.15-2.43-.77-4.42-1.88-5.99-3.34-1.57-1.46-2.72-3.24-3.46-5.35-.74-2.1-1.11-4.51-1.11-7.21,0-2.25.35-4.42,1.06-6.53.71-2.1,1.73-3.96,3.09-5.58,1.35-1.61,3.01-2.91,4.99-3.87,1.97-.97,4.24-1.45,6.8-1.45ZM583.93,60.31c-1.48,0-2.75.34-3.8,1-1.05.67-1.92,1.56-2.6,2.67-.68,1.11-1.18,2.4-1.51,3.87s-.5,3-.52,4.57h15.17v-1.54c-.05-1.39-.17-2.71-.38-3.98-.2-1.27-.56-2.39-1.06-3.37s-1.18-1.76-2.03-2.35c-.85-.59-1.94-.88-3.28-.88Z"/>
    <path class="cls-1" d="M625.29,64.47l-6.28,1.87c-.24-1.72-.56-2.94-.97-3.66-.41-.72-1.04-1.08-1.9-1.08-.5,0-1.09.11-1.78.32s-1.48.57-2.39,1.08v28.52h-7.28v-33.79h7.28v2.65c.96-.67,1.8-1.22,2.53-1.65.73-.43,1.38-.77,1.96-1.02s1.11-.42,1.6-.52c.49-.1.97-.14,1.45-.14,1.87,0,3.25.65,4.16,1.94.91,1.29,1.45,3.12,1.61,5.49"/>
  </g>
  <g>
    <path class="cls-1" d="M214.98,141.65h-2.68l-17.88-27.02h-.13c.06,1.13.1,2.32.13,3.57.03,1.26.04,2.58.04,3.96v19.48h-2.34v-30.91h2.68l17.84,26.93h.17c-.06-.89-.1-2.04-.13-3.44s-.04-2.69-.04-3.88v-19.61h2.34v30.91Z"/>
    <path class="cls-1" d="M231.3,118.23c2.6,0,4.53.64,5.8,1.91,1.27,1.27,1.9,3.28,1.9,6.02v15.5h-1.86l-.48-3.9h-.09c-.81,1.3-1.82,2.34-3.03,3.14s-2.89,1.19-5.02,1.19-3.93-.55-5.22-1.65c-1.28-1.1-1.93-2.7-1.93-4.81,0-2.28.93-4.03,2.79-5.24,1.86-1.21,4.6-1.89,8.2-2.03l4.2-.22v-1.6c0-2.28-.45-3.89-1.36-4.83-.91-.94-2.24-1.41-4-1.41-1.18,0-2.32.15-3.42.45-1.1.3-2.19.74-3.29,1.32l-.78-1.99c1.07-.55,2.25-1,3.55-1.34,1.3-.35,2.64-.52,4.03-.52ZM236.58,130.05l-3.9.17c-2.94.12-5.14.61-6.58,1.49-1.44.88-2.16,2.2-2.16,3.96,0,1.41.45,2.49,1.34,3.23.89.74,2.12,1.1,3.68,1.1,2.4,0,4.25-.68,5.56-2.03,1.31-1.36,2-3.26,2.06-5.72v-2.21Z"/>
    <path class="cls-1" d="M252.86,140c.63,0,1.25-.05,1.84-.15.59-.1,1.09-.22,1.49-.37v1.99c-.46.17-1,.32-1.62.43-.62.11-1.31.17-2.06.17-1.91,0-3.38-.54-4.42-1.62-1.04-1.08-1.56-2.82-1.56-5.22v-14.63h-3.42v-1.39l3.42-.78.87-5.33h1.56v5.5h7.1v1.99h-7.1v14.55c0,3.23,1.3,4.85,3.9,4.85Z"/>
    <path class="cls-1" d="M279.23,118.62v23.03h-2.03l-.35-3.94h-.13c-.64,1.24-1.61,2.28-2.92,3.12-1.31.84-2.95,1.26-4.91,1.26-5.43,0-8.14-2.8-8.14-8.4v-15.07h2.51v14.89c0,2.19.49,3.82,1.47,4.87.98,1.05,2.45,1.58,4.42,1.58,5.08,0,7.62-2.93,7.62-8.79v-12.56h2.47Z"/>
    <path class="cls-1" d="M296.33,118.23c1.21,0,2.25.13,3.12.39l-.35,2.25c-.46-.11-.92-.2-1.39-.26-.46-.06-.95-.09-1.47-.09-2.14,0-3.82.77-5.04,2.32-1.23,1.54-1.84,3.6-1.84,6.17v12.64h-2.47v-23.03h2.08l.26,4.33h.13c.58-1.3,1.45-2.41,2.62-3.33,1.17-.92,2.62-1.39,4.35-1.39Z"/>
    <path class="cls-1" d="M306.37,108.75v16.71c0,.92-.02,1.88-.04,2.88-.03,1-.04,1.98-.04,2.97h.04c.37-.46.8-.99,1.28-1.58s.93-1.12,1.36-1.58l8.75-9.53h2.94l-9.09,9.87,9.87,13.16h-2.94l-8.66-11.52-3.46,3.55v7.97h-2.42v-32.91h2.42Z"/>
    <path class="cls-1" d="M344.6,130.13c0,2.4-.4,4.49-1.19,6.28-.79,1.79-1.96,3.18-3.51,4.18-1.54,1-3.43,1.49-5.65,1.49s-3.97-.49-5.5-1.47c-1.53-.98-2.71-2.37-3.53-4.16s-1.23-3.9-1.23-6.32c0-3.75.93-6.68,2.79-8.79,1.86-2.11,4.41-3.16,7.64-3.16,2.19,0,4.05.5,5.56,1.49,1.52,1,2.66,2.39,3.44,4.18.78,1.79,1.17,3.88,1.17,6.28ZM326.55,130.13c0,2.94.62,5.32,1.86,7.12,1.24,1.8,3.19,2.71,5.84,2.71s4.65-.9,5.91-2.71c1.26-1.8,1.88-4.18,1.88-7.12,0-1.9-.26-3.59-.78-5.07-.52-1.47-1.34-2.63-2.47-3.46-1.13-.84-2.6-1.26-4.42-1.26-2.63,0-4.59.87-5.89,2.6-1.3,1.73-1.95,4.13-1.95,7.19Z"/>
    <path class="cls-1" d="M365.34,135.55c0,2.11-.77,3.72-2.32,4.85-1.54,1.13-3.75,1.69-6.6,1.69-1.62,0-3.04-.15-4.26-.43-1.23-.29-2.26-.64-3.1-1.04v-2.38c1.01.52,2.16.95,3.46,1.28,1.3.33,2.63.5,3.98.5,2.25,0,3.88-.38,4.89-1.15,1.01-.76,1.52-1.81,1.52-3.14s-.53-2.24-1.58-2.92c-1.05-.68-2.63-1.38-4.74-2.1-1.41-.49-2.66-.98-3.75-1.47-1.08-.49-1.93-1.13-2.53-1.93-.61-.79-.91-1.87-.91-3.23,0-1.85.75-3.29,2.25-4.33,1.5-1.04,3.51-1.56,6.02-1.56,1.39,0,2.68.14,3.87.41,1.2.28,2.29.61,3.27,1.02l-.87,2.04c-.89-.4-1.9-.74-3.03-1-1.13-.26-2.25-.39-3.38-.39-1.82,0-3.23.32-4.24.95-1.01.64-1.52,1.56-1.52,2.77,0,.92.25,1.65.74,2.19.49.53,1.2,1,2.12,1.39.92.39,2.05.82,3.38,1.28,1.36.46,2.59.95,3.7,1.47,1.11.52,1.99,1.18,2.64,1.99.65.81.97,1.89.97,3.25Z"/>
    <path class="cls-1" d="M395.21,118.18c2.28,0,4.06.65,5.35,1.95,1.28,1.3,1.93,3.35,1.93,6.15v15.37h-2.43v-15.24c0-2.08-.46-3.61-1.39-4.59-.92-.98-2.19-1.47-3.81-1.47-2.19,0-3.88.64-5.06,1.93-1.18,1.29-1.78,3.27-1.78,5.95v13.42h-2.42v-15.24c0-2.08-.46-3.61-1.39-4.59-.92-.98-2.19-1.47-3.81-1.47-2.19,0-3.88.67-5.07,2.01-1.18,1.34-1.77,3.41-1.77,6.21v13.07h-2.42v-23.03h1.99l.35,3.64h.17c.58-1.13,1.45-2.08,2.62-2.88,1.17-.79,2.66-1.19,4.48-1.19,1.67,0,3.09.36,4.24,1.08,1.15.72,1.96,1.81,2.43,3.25h.17c.63-1.39,1.62-2.45,2.94-3.2,1.33-.75,2.89-1.13,4.68-1.13Z"/>
    <path class="cls-1" d="M418.59,118.18c1.96,0,3.61.46,4.94,1.36,1.33.91,2.32,2.16,2.99,3.75.66,1.59,1,3.41,1,5.46v1.73h-16.45c0,3.03.71,5.36,2.12,6.99,1.41,1.63,3.45,2.45,6.1,2.45,1.44,0,2.7-.11,3.77-.35s2.24-.63,3.51-1.21v2.25c-1.15.52-2.3.89-3.42,1.13-1.13.23-2.44.35-3.94.35-3.43,0-6.08-1.05-7.92-3.16-1.85-2.11-2.77-4.98-2.77-8.62,0-2.34.4-4.42,1.19-6.26.79-1.83,1.94-3.27,3.44-4.31,1.5-1.04,3.32-1.56,5.46-1.56ZM418.55,120.26c-2.11,0-3.82.71-5.13,2.12-1.31,1.42-2.08,3.42-2.32,6.02h13.81c0-2.43-.51-4.39-1.54-5.89-1.03-1.5-2.63-2.25-4.83-2.25Z"/>
    <path class="cls-1" d="M440.24,140c.64,0,1.25-.05,1.84-.15.59-.1,1.09-.22,1.49-.37v1.99c-.46.17-1,.32-1.62.43-.62.11-1.31.17-2.06.17-1.9,0-3.38-.54-4.41-1.62-1.04-1.08-1.56-2.82-1.56-5.22v-14.63h-3.42v-1.39l3.42-.78.87-5.33h1.56v5.5h7.1v1.99h-7.1v14.55c0,3.23,1.3,4.85,3.9,4.85Z"/>
    <path class="cls-1" d="M449.68,110.09c1.15,0,1.73.62,1.73,1.86s-.58,1.9-1.73,1.9-1.65-.63-1.65-1.9.55-1.86,1.65-1.86ZM450.89,118.62v23.03h-2.43v-23.03h2.43Z"/>
    <path class="cls-1" d="M460.93,108.75v16.71c0,.92-.02,1.88-.04,2.88-.03,1-.04,1.98-.04,2.97h.04c.38-.46.8-.99,1.28-1.58s.93-1.12,1.36-1.58l8.75-9.53h2.94l-9.09,9.87,9.87,13.16h-2.94l-8.66-11.52-3.46,3.55v7.97h-2.43v-32.91h2.43Z"/>
  </g>
  <path class="cls-1" d="M104.09,159.9c-.82-38.02-1.14-79.94,5.59-96.27,11.25-27.32,29.59-27.73,43-23.26l-2.15,6.44c-15.73-5.24-27.04,1.1-34.58,19.41-6.75,16.38-5.66,66.57-5.08,93.54l-6.79.15Z"/>
  <path class="cls-1" d="M86.7,154.68c-.2-1.98-.53-5.46-.88-9.87-2.1-18.7-7.67-48.63-18.82-55.75-2.64-1.69-5.36-1.89-8.56-.65l-2.47-6.32c5.17-2.02,10.25-1.59,14.69,1.25,5.61,3.58,10.34,11.1,14.14,22.42.56-11.7,2.25-21.86,6.13-25.74,3.79-3.79,11.56-4.44,23.74-1.99,8.29,1.67,15.58,4.17,15.89,4.27l-2.21,6.42c-16.78-5.77-29.99-6.52-32.61-3.9-5.17,5.17-4.97,35.83-3.07,60.29.57,5.28.79,8.73.8,9.02l-6.76.55Z"/>
  <path class="cls-1" d="M76.08,141.62l-3.31-.74c-1.91-.43-8.39-1.96-9.08-2.13-10.45-2.57-16.18-5.78-20.47-17.04-2.05-5.35-4.16-11.61-6.2-17.67-.9-2.67-1.78-5.29-2.64-7.76l-.66-1.97c-3.42-10.09-6.66-19.63,3.13-29.82,3.93-4.46,8.31-8.99,12.55-13.36,2.11-2.18,4.2-4.34,6.21-6.46,10.54-11.18,16.32-16.39,32.38-12.73,5.82,1.17,10.04,2.12,14.92,3.22,2.23.5,4.61,1.04,7.37,1.65l3.31.73-1.46,6.63-3.31-.73c-2.77-.61-5.16-1.15-7.4-1.65-4.84-1.09-9.02-2.03-14.85-3.2-12.52-2.85-15.97.09-26.02,10.75-2.03,2.15-4.14,4.32-6.27,6.52-4.2,4.34-8.54,8.83-12.39,13.19l-.1.11c-6.98,7.23-4.97,13.16-1.64,22.98l.66,1.96c.85,2.45,1.74,5.09,2.64,7.78,2.02,5.99,4.1,12.19,6.11,17.41,3.26,8.56,6.62,10.62,15.75,12.87.67.17,7.12,1.69,8.94,2.1l3.31.74-1.47,6.63Z"/>
  <path class="cls-1" d="M120.97,139.97l-4.45-5.13,2.56-2.22c3.32-2.88,4.81-4.49,6.88-6.71,1.07-1.15,2.28-2.46,3.95-4.16,1.09-1.15,2.3-2.4,3.52-3.67,3.83-3.96,7.79-8.06,10.44-11.53l.15-.18c4.88-5.57,2.39-12.89-.24-20.63l-.48-1.42c-1.79-5.25-8.57-23.24-8.63-23.42l-1.2-3.17,6.35-2.4,1.2,3.18c.28.74,6.89,18.27,8.71,23.64l.48,1.41c2.84,8.33,6.36,18.7-1,27.2-2.89,3.77-6.95,7.98-10.89,12.05-1.21,1.25-2.4,2.48-3.52,3.66-1.64,1.68-2.82,2.95-3.87,4.07-2.13,2.29-3.81,4.11-7.41,7.22l-2.56,2.22Z"/>
</svg>