<?xml version="1.0" encoding="UTF-8"?>
<svg id="v4" xmlns="http://www.w3.org/2000/svg" viewBox="0 0 191 191">
  <defs>
    <style>
      .cls-1 {
        fill: #3e4344;
        stroke-width: 0px;
      }
    </style>
  </defs>
  <path class="cls-1" d="M107.64,160.05c-.82-38.02-1.14-79.94,5.59-96.27,11.25-27.32,29.59-27.73,43-23.26l-2.15,6.44c-15.73-5.24-27.04,1.1-34.58,19.41-6.75,16.38-5.66,66.57-5.08,93.54l-6.79.15Z"/>
  <path class="cls-1" d="M90.24,154.84c-.2-1.98-.53-5.46-.88-9.87-2.1-18.7-7.67-48.63-18.82-55.75-2.64-1.69-5.36-1.89-8.56-.65l-2.47-6.32c5.17-2.02,10.25-1.59,14.69,1.25,5.61,3.58,10.34,11.1,14.14,22.42.56-11.7,2.25-21.86,6.13-25.74,3.79-3.79,11.56-4.44,23.74-1.99,8.29,1.67,15.58,4.17,15.89,4.27l-2.21,6.42c-16.78-5.77-29.99-6.52-32.61-3.9-5.17,5.17-4.97,35.83-3.07,60.29.57,5.28.79,8.73.8,9.02l-6.76.55Z"/>
  <path class="cls-1" d="M79.62,141.78l-3.31-.74c-1.91-.43-8.39-1.96-9.08-2.13-10.45-2.57-16.18-5.78-20.47-17.04-2.05-5.35-4.16-11.61-6.2-17.67-.9-2.67-1.78-5.29-2.64-7.76l-.66-1.97c-3.42-10.09-6.66-19.63,3.13-29.82,3.93-4.46,8.31-8.99,12.55-13.36,2.11-2.18,4.2-4.34,6.21-6.46,10.54-11.18,16.32-16.39,32.38-12.73,5.82,1.17,10.04,2.12,14.92,3.22,2.23.5,4.61,1.04,7.37,1.65l3.31.73-1.46,6.63-3.31-.73c-2.77-.61-5.16-1.15-7.4-1.65-4.84-1.09-9.02-2.03-14.85-3.2-12.52-2.85-15.97.09-26.02,10.75-2.03,2.15-4.14,4.32-6.27,6.52-4.2,4.34-8.54,8.83-12.39,13.19l-.1.11c-6.98,7.23-4.97,13.16-1.64,22.98l.66,1.96c.85,2.45,1.74,5.09,2.64,7.78,2.02,5.99,4.1,12.19,6.11,17.41,3.26,8.56,6.62,10.62,15.75,12.87.67.17,7.12,1.69,8.94,2.1l3.31.74-1.47,6.63Z"/>
  <path class="cls-1" d="M124.51,140.13l-4.45-5.13,2.56-2.22c3.32-2.88,4.81-4.49,6.88-6.71,1.07-1.15,2.28-2.46,3.95-4.16,1.09-1.15,2.3-2.4,3.52-3.67,3.83-3.96,7.79-8.06,10.44-11.53l.15-.18c4.88-5.57,2.39-12.89-.24-20.63l-.48-1.42c-1.79-5.25-8.57-23.24-8.63-23.42l-1.2-3.17,6.35-2.4,1.2,3.18c.28.74,6.89,18.27,8.71,23.64l.48,1.41c2.84,8.33,6.36,18.7-1,27.2-2.89,3.77-6.95,7.98-10.89,12.05-1.21,1.25-2.4,2.48-3.52,3.66-1.64,1.68-2.82,2.95-3.87,4.07-2.13,2.29-3.81,4.11-7.41,7.22l-2.56,2.22Z"/>
</svg>