<?xml version="1.0" encoding="UTF-8"?>
<svg id="v4" xmlns="http://www.w3.org/2000/svg" viewBox="0 0 601 191">
  <defs>
    <style>
      .cls-1 {
        fill: #3e4344;
        stroke-width: 0px;
      }
    </style>
  </defs>
  <g>
    <path class="cls-1" d="M206.1,41.67c2.57,0,4.78.23,6.65.68,1.87.45,3.45,1.06,4.76,1.8s2.35,1.61,3.15,2.58c.8.97,1.41,1.97,1.85,3,.43,1.03.73,2.06.88,3.08s.23,1.96.23,2.83c0,1.11-.18,2.35-.53,3.73-.35,1.37-.99,2.71-1.91,4-.92,1.29-2.18,2.46-3.77,3.5-1.6,1.04-3.63,1.78-6.09,2.23l13.03,17.64h-8.12l-12.73-17.18h-4.91v17.18h-6.64v-45.06h14.15ZM198.59,44.64v21.91h3.79c2.16,0,4.12-.2,5.86-.59,1.75-.39,3.24-1.03,4.48-1.91s2.2-2.02,2.86-3.42,1-3.11,1-5.11c0-2.26-.4-4.11-1.21-5.53-.81-1.42-1.87-2.53-3.2-3.32-1.32-.79-2.83-1.32-4.53-1.61-1.7-.28-3.43-.42-5.21-.42h-3.85Z"/>
    <path class="cls-1" d="M239.1,60.22c-.97,0-1.81.03-2.53.09-.72.06-1.37.15-1.95.25-.59.1-1.13.22-1.64.36-.51.14-1.01.28-1.52.42l-.73-1.97c1.7-.63,3.47-1.08,5.32-1.35s3.6-.41,5.26-.41c2.12,0,3.86.11,5.23.33s2.43.59,3.2,1.11c.77.52,1.3,1.2,1.59,2.06.29.86.44,1.93.44,3.23v22.39h-9.94c-2.71,0-5.02-.28-6.92-.85s-3.47-1.33-4.68-2.29-2.1-2.06-2.67-3.3c-.57-1.24-.85-2.55-.85-3.92,0-1.7.27-3.19.8-4.48.54-1.29,1.31-2.38,2.32-3.26,1.01-.88,2.24-1.55,3.7-2s3.11-.68,4.97-.68c1.01,0,2.16.17,3.44.52,1.28.34,2.51.86,3.68,1.55v-3.8c0-.47-.05-.94-.15-1.42-.1-.48-.36-.9-.79-1.28-.42-.37-1.08-.69-1.95-.93s-2.09-.37-3.62-.37ZM245.62,84.25v-14.03c-.97-.59-1.98-1.02-3.03-1.3-1.05-.28-2.21-.42-3.48-.42-1.01,0-1.9.18-2.68.55-.78.36-1.43.88-1.95,1.55-.53.67-.92,1.46-1.2,2.39s-.41,1.96-.41,3.09c0,.32.02.75.05,1.27s.13,1.09.3,1.7c.17.61.43,1.22.79,1.83.35.62.85,1.18,1.5,1.68.65.5,1.46.91,2.45,1.23.99.31,2.2.47,3.64.47h4.03Z"/>
    <path class="cls-1" d="M277.04,84.37c-1.31.57-2.52,1.04-3.61,1.41s-2.11.67-3.05.89-1.82.38-2.65.47c-.83.09-1.62.14-2.36.14-1.9,0-3.35-.49-4.35-1.47-1-.98-1.5-2.57-1.5-4.77v-22.85h6.15v21.91c0,.46.05.92.14,1.38s.25.86.48,1.23c.23.36.55.66.95.89.4.23.93.35,1.58.35,1.03,0,2.23-.13,3.59-.38s2.9-.77,4.62-1.56v-23.82h6.12v28.55h-6.12v-2.36Z"/>
    <path class="cls-1" d="M297.43,60.55c1.29-.57,2.48-1.04,3.58-1.41s2.11-.68,3.06-.91c.95-.23,1.83-.39,2.65-.48s1.61-.14,2.38-.14c1.9,0,3.35.5,4.35,1.48s1.5,2.59,1.5,4.79v22.85h-6.15v-21.91c0-.44-.05-.9-.14-1.36s-.26-.88-.5-1.24-.57-.66-.98-.89c-.41-.23-.93-.35-1.56-.35-1.03,0-2.22.13-3.58.38-1.35.25-2.89.77-4.61,1.56v23.82h-6.15v-28.55h6.15v2.36Z"/>
    <path class="cls-1" d="M332.83,60.22c-.97,0-1.81.03-2.53.09-.72.06-1.37.15-1.95.25-.59.1-1.13.22-1.64.36-.51.14-1.01.28-1.52.42l-.73-1.97c1.7-.63,3.47-1.08,5.32-1.35s3.6-.41,5.26-.41c2.12,0,3.86.11,5.23.33s2.43.59,3.2,1.11c.77.52,1.3,1.2,1.59,2.06.29.86.44,1.93.44,3.23v22.39h-9.94c-2.71,0-5.02-.28-6.92-.85s-3.47-1.33-4.68-2.29-2.1-2.06-2.67-3.3c-.57-1.24-.85-2.55-.85-3.92,0-1.7.27-3.19.8-4.48.54-1.29,1.31-2.38,2.32-3.26,1.01-.88,2.24-1.55,3.7-2,1.45-.45,3.11-.68,4.97-.68,1.01,0,2.16.17,3.44.52,1.28.34,2.51.86,3.68,1.55v-3.8c0-.47-.05-.94-.15-1.42-.1-.48-.36-.9-.79-1.28-.42-.37-1.08-.69-1.95-.93s-2.09-.37-3.62-.37ZM339.34,84.25v-14.03c-.97-.59-1.98-1.02-3.03-1.3-1.05-.28-2.21-.42-3.48-.42-1.01,0-1.9.18-2.68.55-.78.36-1.43.88-1.95,1.55-.53.67-.92,1.46-1.2,2.39s-.41,1.96-.41,3.09c0,.32.02.75.05,1.27s.13,1.09.3,1.7c.17.61.43,1.22.79,1.83.35.62.85,1.18,1.5,1.68.65.5,1.46.91,2.45,1.23.99.31,2.2.47,3.64.47h4.03Z"/>
    <path class="cls-1" d="M397.16,41.67v2.97h-20.91v13.67h20.27v2.97h-20.27v25.45h-6.64v-45.06h27.55Z"/>
    <path class="cls-1" d="M408.37,60.43c.81-.57,1.52-1.03,2.14-1.39.62-.36,1.17-.65,1.65-.86s.93-.36,1.35-.44c.41-.08.82-.12,1.23-.12,1.58,0,2.75.55,3.52,1.64.77,1.09,1.22,2.64,1.36,4.64l-5.3,1.58c-.2-1.45-.48-2.48-.82-3.09-.34-.61-.88-.91-1.61-.91-.42,0-.92.09-1.5.27s-1.25.48-2.02.91v24.09h-6.15v-28.55h6.15v2.24Z"/>
    <path class="cls-1" d="M435.68,57.61c2.06,0,3.8.38,5.23,1.14,1.42.76,2.59,1.78,3.48,3.08.9,1.29,1.55,2.78,1.94,4.47s.59,3.47.59,5.35v1.42h-18.67c0,1.13.18,2.35.55,3.67s.95,2.53,1.77,3.64,1.88,2.04,3.18,2.77,2.9,1.11,4.8,1.11h6.3v2.48h-6.39c-2.83,0-5.27-.32-7.32-.97-2.05-.65-3.74-1.59-5.06-2.82-1.32-1.23-2.3-2.74-2.92-4.52-.63-1.78-.94-3.81-.94-6.09,0-1.9.3-3.74.89-5.52.6-1.78,1.46-3.35,2.61-4.71,1.14-1.36,2.55-2.45,4.21-3.27,1.67-.82,3.58-1.23,5.74-1.23ZM435.37,60.37c-1.25,0-2.32.28-3.21.85-.89.57-1.62,1.32-2.2,2.26s-1,2.03-1.27,3.27-.42,2.53-.44,3.86h12.82v-1.3c-.04-1.17-.15-2.29-.32-3.36-.17-1.07-.47-2.02-.89-2.85s-1-1.49-1.71-1.98c-.72-.5-1.64-.74-2.77-.74Z"/>
    <path class="cls-1" d="M461.74,86.7l-.03.03-13.15-28.55h6.18l6.97,15.21,2.58,6.61,8.27-21.82h2.94l-15.03,39.51h-2.91l4.18-11Z"/>
    <path class="cls-1" d="M486.07,60.55c1.29-.57,2.48-1.04,3.58-1.41s2.11-.68,3.06-.91c.95-.23,1.83-.39,2.65-.48s1.61-.14,2.38-.14c1.9,0,3.35.5,4.35,1.48,1,.99,1.5,2.59,1.5,4.79v22.85h-6.15v-21.91c0-.44-.05-.9-.14-1.36s-.25-.88-.48-1.24c-.23-.36-.56-.66-.97-.89-.41-.23-.93-.35-1.56-.35-1.03,0-2.23.13-3.59.38s-2.9.77-4.62,1.56v23.82h-6.12v-45.06h6.12v18.88Z"/>
    <path class="cls-1" d="M523.22,57.61c2.06,0,3.8.38,5.23,1.14s2.59,1.78,3.48,3.08c.9,1.29,1.55,2.78,1.94,4.47.39,1.69.59,3.47.59,5.35v1.42h-18.67c0,1.13.18,2.35.55,3.67s.95,2.53,1.77,3.64,1.88,2.04,3.18,2.77,2.9,1.11,4.8,1.11h6.3v2.48h-6.39c-2.83,0-5.27-.32-7.32-.97-2.05-.65-3.74-1.59-5.06-2.82-1.32-1.23-2.3-2.74-2.92-4.52-.63-1.78-.94-3.81-.94-6.09,0-1.9.3-3.74.89-5.52.6-1.78,1.46-3.35,2.61-4.71,1.14-1.36,2.55-2.45,4.21-3.27,1.67-.82,3.58-1.23,5.74-1.23ZM522.92,60.37c-1.25,0-2.32.28-3.21.85-.89.57-1.62,1.32-2.2,2.26-.58.94-1,2.03-1.27,3.27s-.42,2.53-.44,3.86h12.82v-1.3c-.04-1.17-.15-2.29-.32-3.36-.17-1.07-.47-2.02-.89-2.85s-1-1.49-1.71-1.98c-.72-.5-1.64-.74-2.77-.74Z"/>
    <path class="cls-1" d="M557.86,63.88l-5.3,1.58c-.2-1.45-.48-2.48-.82-3.09-.34-.61-.88-.91-1.61-.91-.42,0-.92.09-1.5.27s-1.25.48-2.02.91v24.09h-6.15v-28.55h6.15v2.24c.81-.57,1.52-1.03,2.14-1.39.62-.36,1.17-.65,1.65-.86s.93-.36,1.35-.44c.41-.08.82-.12,1.23-.12,1.58,0,2.75.55,3.52,1.64.77,1.09,1.22,2.64,1.36,4.64"/>
  </g>
  <g>
    <path class="cls-1" d="M211.92,130.2h-2.34l-15.62-23.6h-.11c.05.98.09,2.02.11,3.12.03,1.1.04,2.25.04,3.46v17.02h-2.04v-27h2.34l15.58,23.52h.15c-.05-.78-.09-1.78-.11-3.01s-.04-2.35-.04-3.39v-17.13h2.04v27Z"/>
    <path class="cls-1" d="M226.18,109.74c2.27,0,3.96.55,5.07,1.66,1.11,1.11,1.66,2.86,1.66,5.26v13.54h-1.63l-.42-3.4h-.08c-.71,1.13-1.59,2.05-2.65,2.74s-2.52,1.04-4.39,1.04-3.44-.48-4.56-1.44c-1.12-.96-1.68-2.36-1.68-4.2,0-1.99.81-3.52,2.44-4.58,1.63-1.06,4.01-1.65,7.17-1.78l3.67-.19v-1.4c0-1.99-.4-3.4-1.19-4.22-.79-.82-1.96-1.23-3.5-1.23-1.03,0-2.03.13-2.99.4-.96.26-1.92.65-2.87,1.15l-.68-1.74c.93-.48,1.97-.87,3.1-1.17,1.13-.3,2.31-.45,3.52-.45ZM230.79,120.07l-3.4.15c-2.57.1-4.49.54-5.75,1.3-1.26.77-1.89,1.92-1.89,3.46,0,1.24.39,2.17,1.17,2.82.78.64,1.85.96,3.21.96,2.09,0,3.71-.59,4.86-1.78,1.15-1.19,1.75-2.85,1.8-4.99v-1.93Z"/>
    <path class="cls-1" d="M245.01,128.76c.55,0,1.09-.04,1.61-.13.52-.09.95-.2,1.3-.32v1.74c-.4.15-.88.28-1.42.38-.54.1-1.14.15-1.8.15-1.66,0-2.95-.47-3.86-1.42-.91-.95-1.36-2.46-1.36-4.56v-12.78h-2.99v-1.21l2.99-.68.76-4.65h1.36v4.8h6.2v1.74h-6.2v12.71c0,2.82,1.13,4.23,3.4,4.23Z"/>
    <path class="cls-1" d="M268.04,110.08v20.12h-1.78l-.3-3.44h-.11c-.55,1.08-1.41,1.99-2.55,2.72-1.15.73-2.58,1.1-4.29,1.1-4.74,0-7.11-2.45-7.11-7.34v-13.16h2.19v13.01c0,1.92.43,3.34,1.29,4.25.86.92,2.14,1.38,3.86,1.38,4.44,0,6.66-2.56,6.66-7.68v-10.97h2.16Z"/>
    <path class="cls-1" d="M282.98,109.74c1.06,0,1.97.11,2.72.34l-.3,1.97c-.4-.1-.81-.18-1.21-.23-.4-.05-.83-.08-1.29-.08-1.87,0-3.33.68-4.41,2.02-1.07,1.35-1.61,3.15-1.61,5.39v11.04h-2.16v-20.12h1.82l.23,3.78h.11c.5-1.13,1.27-2.11,2.29-2.91,1.02-.81,2.29-1.21,3.8-1.21Z"/>
    <path class="cls-1" d="M291.75,101.46v14.6c0,.81-.01,1.64-.04,2.52-.03.87-.04,1.73-.04,2.59h.04c.33-.4.7-.86,1.12-1.38s.81-.98,1.19-1.38l7.64-8.32h2.57l-7.94,8.62,8.62,11.5h-2.57l-7.56-10.06-3.03,3.1v6.96h-2.12v-28.74h2.12Z"/>
    <path class="cls-1" d="M325.14,120.14c0,2.09-.35,3.92-1.04,5.48-.69,1.56-1.71,2.78-3.06,3.65-1.35.87-2.99,1.3-4.94,1.3s-3.47-.43-4.8-1.29c-1.34-.86-2.36-2.07-3.08-3.63s-1.08-3.4-1.08-5.52c0-3.28.81-5.84,2.44-7.68,1.63-1.84,3.85-2.76,6.68-2.76,1.92,0,3.54.44,4.86,1.3,1.32.87,2.33,2.09,3.01,3.65.68,1.56,1.02,3.39,1.02,5.48ZM309.37,120.14c0,2.57.54,4.65,1.63,6.22,1.08,1.58,2.79,2.36,5.11,2.36s4.07-.79,5.16-2.36c1.1-1.57,1.64-3.65,1.64-6.22,0-1.66-.23-3.14-.68-4.43-.45-1.29-1.17-2.29-2.16-3.02s-2.27-1.1-3.86-1.1c-2.29,0-4.01.76-5.14,2.27-1.13,1.51-1.7,3.61-1.7,6.28Z"/>
    <path class="cls-1" d="M343.26,124.87c0,1.84-.67,3.25-2.02,4.24-1.35.98-3.27,1.48-5.77,1.48-1.41,0-2.65-.13-3.72-.38-1.07-.25-1.97-.55-2.7-.91v-2.08c.88.45,1.89.83,3.03,1.12,1.13.29,2.29.43,3.48.43,1.97,0,3.39-.33,4.27-1,.88-.67,1.32-1.58,1.32-2.74s-.46-1.96-1.38-2.55c-.92-.59-2.3-1.2-4.14-1.83-1.24-.43-2.33-.86-3.27-1.29-.95-.43-1.68-.99-2.21-1.68-.53-.69-.79-1.63-.79-2.82,0-1.61.66-2.87,1.97-3.78,1.31-.91,3.06-1.36,5.26-1.36,1.21,0,2.34.12,3.38.36,1.05.24,2,.54,2.86.89l-.76,1.78c-.78-.35-1.66-.64-2.65-.87-.98-.23-1.97-.34-2.95-.34-1.59,0-2.82.28-3.71.83-.88.55-1.32,1.36-1.32,2.42,0,.81.21,1.44.64,1.91.43.47,1.05.87,1.85,1.21.81.34,1.79.71,2.95,1.12,1.18.4,2.26.83,3.23,1.29.97.45,1.74,1.03,2.31,1.74.57.71.85,1.65.85,2.84Z"/>
    <path class="cls-1" d="M369.35,109.7c1.99,0,3.55.57,4.67,1.7,1.12,1.13,1.68,2.92,1.68,5.37v13.43h-2.12v-13.31c0-1.81-.4-3.15-1.21-4.01-.81-.86-1.92-1.29-3.33-1.29-1.92,0-3.39.56-4.42,1.68-1.03,1.12-1.55,2.86-1.55,5.2v11.72h-2.12v-13.31c0-1.81-.4-3.15-1.21-4.01-.81-.86-1.92-1.29-3.33-1.29-1.92,0-3.39.59-4.43,1.76-1.03,1.17-1.55,2.98-1.55,5.43v11.42h-2.12v-20.12h1.74l.3,3.18h.15c.5-.98,1.27-1.82,2.29-2.51,1.02-.69,2.33-1.04,3.91-1.04,1.46,0,2.7.32,3.71.95,1.01.63,1.71,1.58,2.12,2.84h.15c.55-1.21,1.41-2.14,2.57-2.8,1.16-.66,2.52-.98,4.09-.98Z"/>
    <path class="cls-1" d="M389.77,109.7c1.71,0,3.15.4,4.31,1.19,1.16.8,2.03,1.89,2.61,3.27.58,1.39.87,2.98.87,4.77v1.51h-14.37c0,2.65.62,4.68,1.85,6.11,1.23,1.42,3.01,2.14,5.33,2.14,1.26,0,2.36-.1,3.29-.3s1.95-.55,3.06-1.06v1.97c-1.01.45-2,.78-2.99.98-.98.2-2.13.3-3.44.3-3,0-5.31-.92-6.92-2.76-1.61-1.84-2.42-4.35-2.42-7.53,0-2.04.35-3.86,1.04-5.46.69-1.6,1.7-2.86,3.01-3.76,1.31-.91,2.9-1.36,4.77-1.36ZM389.73,111.52c-1.84,0-3.33.62-4.48,1.85-1.15,1.24-1.82,2.99-2.02,5.26h12.06c0-2.12-.45-3.83-1.34-5.14-.9-1.31-2.3-1.97-4.22-1.97Z"/>
    <path class="cls-1" d="M408.68,128.76c.55,0,1.09-.04,1.61-.13.52-.09.95-.2,1.3-.32v1.74c-.4.15-.88.28-1.42.38-.54.1-1.14.15-1.8.15-1.66,0-2.95-.47-3.86-1.42-.91-.95-1.36-2.46-1.36-4.56v-12.78h-2.99v-1.21l2.99-.68.76-4.65h1.36v4.8h6.2v1.74h-6.2v12.71c0,2.82,1.13,4.23,3.4,4.23Z"/>
    <path class="cls-1" d="M416.93,102.63c1.01,0,1.51.54,1.51,1.63s-.5,1.66-1.51,1.66-1.44-.55-1.44-1.66.48-1.63,1.44-1.63ZM417.98,110.08v20.12h-2.12v-20.12h2.12Z"/>
    <path class="cls-1" d="M426.76,101.46v14.6c0,.81-.01,1.64-.04,2.52-.03.87-.04,1.73-.04,2.59h.04c.33-.4.7-.86,1.12-1.38s.81-.98,1.19-1.38l7.64-8.32h2.57l-7.94,8.62,8.62,11.5h-2.57l-7.56-10.06-3.03,3.1v6.96h-2.12v-28.74h2.12Z"/>
  </g>
  <path class="cls-1" d="M107.93,158.4c-.82-38.02-1.14-79.94,5.59-96.27,11.25-27.32,29.59-27.73,43-23.26l-2.15,6.44c-15.73-5.24-27.04,1.1-34.58,19.41-6.75,16.38-5.66,66.57-5.08,93.54l-6.79.15Z"/>
  <path class="cls-1" d="M90.53,153.18c-.2-1.98-.53-5.46-.88-9.86-2.1-18.7-7.67-48.63-18.82-55.75-2.64-1.69-5.36-1.89-8.56-.65l-2.47-6.32c5.17-2.02,10.25-1.59,14.69,1.25,5.61,3.58,10.34,11.1,14.14,22.41.56-11.7,2.25-21.86,6.13-25.74,3.79-3.79,11.56-4.44,23.74-1.99,8.29,1.67,15.58,4.17,15.89,4.27l-2.21,6.42c-16.78-5.77-29.99-6.52-32.61-3.9-5.17,5.17-4.97,35.83-3.07,60.29.57,5.28.79,8.73.8,9.02l-6.76.55Z"/>
  <path class="cls-1" d="M79.91,140.12l-3.31-.74c-1.9-.42-8.4-1.96-9.09-2.13-10.45-2.57-16.18-5.78-20.47-17.04-2.05-5.34-4.16-11.6-6.2-17.66-.9-2.67-1.78-5.3-2.64-7.77l-.66-1.97c-3.42-10.09-6.66-19.63,3.13-29.82,3.94-4.46,8.32-8.99,12.56-13.37,2.11-2.17,4.19-4.33,6.2-6.45,10.54-11.18,16.32-16.39,32.38-12.73,5.84,1.17,10.07,2.12,14.97,3.23,2.22.5,4.58,1.03,7.32,1.64l3.31.73-1.46,6.63-3.31-.73c-2.75-.61-5.12-1.14-7.35-1.64-4.85-1.09-9.05-2.04-14.9-3.21-12.52-2.86-15.97.09-26.02,10.75-2.03,2.14-4.13,4.32-6.26,6.51-4.2,4.34-8.55,8.83-12.4,13.2l-.1.11c-6.98,7.23-4.97,13.16-1.64,22.98l.66,1.96c.85,2.46,1.74,5.1,2.65,7.79,2.02,5.99,4.1,12.18,6.11,17.4,3.26,8.56,6.62,10.62,15.75,12.87.67.16,7.13,1.7,8.94,2.1l3.31.74-1.48,6.62Z"/>
  <path class="cls-1" d="M124.81,138.47l-4.45-5.13,2.56-2.22c3.32-2.88,4.81-4.49,6.88-6.71,1.07-1.15,2.28-2.46,3.95-4.16,1.09-1.16,2.3-2.4,3.53-3.68,3.83-3.96,7.78-8.06,10.43-11.53l.15-.18c4.88-5.57,2.4-12.89-.24-20.63l-.48-1.42c-1.79-5.25-8.57-23.24-8.63-23.42l-1.2-3.18,6.35-2.39,1.2,3.18c.28.74,6.89,18.27,8.71,23.64l.48,1.41c2.84,8.33,6.36,18.7-1,27.2-2.89,3.77-6.95,7.97-10.88,12.04-1.21,1.26-2.4,2.49-3.52,3.67-1.64,1.68-2.83,2.95-3.87,4.07-2.13,2.29-3.81,4.11-7.41,7.22l-2.56,2.22Z"/>
</svg>