<?xml version="1.0" encoding="UTF-8"?>
<svg id="Layer_1" data-name="Layer 1" xmlns="http://www.w3.org/2000/svg" viewBox="0 0 1366 768">
  <defs>
    <style>
      .cls-1 {
        fill: #888;
        stroke-width: 0px;
      }
    </style>
  </defs>
  <g id="Untitled.tiff">
    <path class="cls-1" d="M263.19,0c16.33,95.09-113.71,8.94-138.97,18.75,13.54,10.67,36.21,11.18,48.08,23.6-23.27,4.82-63.45-18.57-85.51-2.75-15.16,10.87-15.55,35.51-30.21,50.01,20.61,10.23,21.72-23.38,27.16-31.79,9.76-15.09,24.16-17.75,42.5-11.88-11.66,13.78-35.52,27.42-22.3,49.46,8.74-13.31,2.68-24.55,17.57-36.39,12.47-9.91,22.77-8.99,37.55-9.5,34.56-1.2,73,11.93,102.29-10.84.33,27.71-31.51,43.03-53.65,47.81-12.39,2.67-79.59-.47-72.12,17.94,10.96-9.41,34.18-9.98,47.96-6.87-14.18,21.84-42.69,29.82-55.43,54.59-8.86,17.23-17.11,55.9-.9,71.63,1.74-3.73,2.2-7.63,1.39-11.72,6.33,4.38,12.79,8.56,19.38,12.53-11.37-17.69-21.77-19.81-21.82-41.32-.05-22.55,14.68-40.34,30.73-54.06-7.39,33.08-4.23,46.75,29.24,60.55-21.68-24-36.79-43.09-11.57-73.22,16.36-19.54,50.47-29.79,74-36.69-4.51,18.06-23.86,30.1-33.85,43.45-8.91,11.9-24.2,45.23-4.64,58.2,5.38-16.98-2.99-32.76,4.34-49.98-.55,31.98,21.44,59.77,36.53,86.47,18.73,33.15,29.05,37.4,2.7,61.98,9.68.92,9.67-3.37,18.05-4.27,2.46-.26-.75,11.99.74,14.49,29.65-23.11-19.47-76.9-26.23-101.67,17.46,5.67,35.7,23.69,48.51,36.67-1.24-30.65-53.36-37.2-67.31-61.4-14.63-25.38,6.19-58.7,26.39-75.42,7.92,27.38,20.05,51.47,29.09,78.2,14.15-23.31-14.37-41.72-19.29-62.69-3.87-16.47,3.28-56.51,9.93-72.66,11.79,29.78,13.49,60.56,29.16,90.34,7.53,14.31,13.97,24.27,15.28,40.44,1.09,13.51-10,29.11-4.79,41.35,8.65-12.06,6.25-28.57,14.4-40.74,9.43,9.87,9.24,33.3,13.76,46.27,22.83-34.92-34.82-77.73-41.41-108.72,9.58,4.85,17.31,18.17,28.41,18.32-5.26-15.62-27.24-23.31-35.59-37.56-9.12-15.57-6.92-34.41-10.69-51.51,3.26,14.77,51.13,34.98,60.81,55.49,11.69,24.77-7.06,53.85,15.89,73.14-7.48-19.71-6.24-43.18-4.69-63.93,21.2,21.33,49.78,49.44,53.32,79.12,2.2,18.51-8.7,63.18,21.87,67.98-.7-5.92-3.39-10.98-8.07-15.2,9.78,4.09,24.1,11.73,34.52,7.26-21.54-17.22-39.87-10.59-46.03-41.18-2.52-12.5,5.17-24.32,1.06-38.33-3.69-12.61-13.51-21.03-20.38-31.74,14.05,1.01,29.07,1.7,38.3,12.96,8.34,10.18,3.43,28.51,13.73,37.23,19.13-50.5-43.12-49.47-67.21-67.14-16.87-12.37-30.34-30.8-45.62-45.08-13.51-12.63-42.58-31.08-46.69-49.08,32.85,37.46,73.73,42.76,120.83,49.95,17.66,2.7,54.34,6.35,64.71,23.12,9.85,15.93-6.73,33.8-6.16,50.07,10.43-7.76,12.38-27.69,16.36-39.59,7.09,7.31,8.37,17.44,16.55,24.01,7.35-53.83-73.23-56.58-103.65-69.28,8.08-12.35,31-20.43,41.84-8.2,19.83-28.77-63.12,6.29-69.35,6.36-28.76.31-65.39-21.28-76.82-47.32-8,0-16,0-24,0Z"/>
  </g>
</svg>