<?xml version="1.0" encoding="utf-8"?>
<!-- Generator: Adobe Illustrator 28.2.0, SVG Export Plug-In . SVG Version: 6.00 Build 0)  -->
<svg version="1.1" id="Layer_1" xmlns="http://www.w3.org/2000/svg" xmlns:xlink="http://www.w3.org/1999/xlink" x="0px" y="0px"
	 viewBox="0 0 1920 1080" style="enable-background:new 0 0 1920 1080;" xml:space="preserve">
<style type="text/css">
	.st0{fill:#E7EAD7;}
</style>
<path class="st0" d="M214.9,926.2c-33.1,15.1-255.4,116.5-214.4,4.1l0.3,0.1l-0.2-0.1c-49.3,20.9-98.6,41.7-148,62.6
	c-1.4,0.6-3.1,0.7-4.6,1c0-3.2,0-6.5,0-9.7c17-7,187.7-82.6,189.4-78.9c4,8.3-31,25.6-31.5,41.6c-1,29.3,21.2,27.4,50.3,26.5
	c64.2-1.8,111-53.5,170.8-61.1c1.4,25.3-13.4,38.3,8,55.7c25.4,20.5,89.5,5.6,115.5-1.8c20.7-5.9,153.4-79.5,169.2-63.5
	c9.6,9.7-9.4,41.3,0.9,56c13.3,19,49.9,17.5,69,16.5c20.6-1.1,165.6-59.1,168.3-55.2c6,8.6-9,33.2,1.1,49
	c13.9,21.8,42.2,21.5,64.5,19.9c28.5-2,129.2-58.4,148.7-47.7c13.2,7.2,3.7,39.1,23.1,51.4c21.2,13.4,60,4.9,82.1-0.8
	c25.1-6.4,126.1-68.3,145.7-58.5c8.9,4.5,1.6,34.5,17.5,45.3c19.4,13.1,62,3.8,82.5-0.3c16.1-3.2,127.4-40.4,127.4-46.7
	c0.2,50.2,25.6,56.4,79.5,48.3c18.1-2.7,123.1-47,127.2-42c8,9.6-11.8,19.6,0.7,31.6c9.4,9,19,11,31.4,14
	c36.2,8.8,79.9-5,113.7-17.7c7-2.6,59.6-35.6,61.5-34.9c11,4,1.7,21.5,9.4,28.3c12.7,11.2,23.1,13.4,39.7,17.4v11.8
	c-12.3-1.2-23.9-4.5-34.9-10.1c-9.4-5.8-15.6-14-18.5-24.7c-10.6-2.1-40.4,17.2-49.6,20.8c-37.7,14.8-113.3,39.5-151.5,10.2
	c-11.4-8.8-9.9-24.9-20.2-29.2c-12.9-5.3-77.1,27.2-94.7,30.8c-23.6,4.8-54.3,13.1-77.2,2.2c-3-1.4-50.6-35-34.4-40.6
	c-46.9,16.2-86.4,41.8-137.7,45c-10.3,0.7-43.1,2.1-54.3-4.2c-18.8-10.6-15.9-33.1-26.2-39.8c-16.3-10.6-133.9,53.6-159.4,57.1
	c-19,2.6-49.3,6.7-66.3-5.9c-14.3-10.7-14.2-42.4-22.8-47.7c-15.9-9.7-126.3,47.1-155,46.3c-46.5-1.3-65.3-20.6-67.5-66.3
	c-54.8,16.3-99.2,50.5-158.9,52.3c-19.1,0.6-51.4,0.6-66.2-14.7c-20.4-21.2,2.3-48.2-22.1-53.1c-41.9-8.5-304.8,162-281.5,9.2
	l0.3-0.2L214.9,926.2L214.9,926.2z"/>
<path class="st0" d="M270.5,831.3c-33.1,15.1-255.4,116.5-214.4,4.1l0.3,0.1l-0.2-0.1c-49.3,20.9-98.6,41.7-148,62.6
	c-1.4,0.6-3.1,0.7-4.6,1c0-3.2,0-6.5,0-9.7c17-7,187.7-82.6,189.4-78.9c4,8.3-31,25.6-31.5,41.6c-1,29.3,21.2,27.4,50.3,26.5
	c64.2-1.8,111-53.5,170.8-61.1c1.4,25.3-13.4,38.3,8,55.7c25.4,20.5,89.5,5.6,115.5-1.8c20.7-5.9,153.4-79.5,169.2-63.5
	c9.6,9.7-9.4,41.3,0.9,56c13.3,19,49.9,17.5,69,16.5c20.6-1.1,165.6-59.1,168.3-55.2c6,8.6-9,33.2,1.1,49
	c13.9,21.8,42.2,21.5,64.5,19.9c28.5-2,129.2-58.4,148.7-47.7c13.2,7.2,3.7,39.1,23.1,51.4c21.2,13.4,60,4.9,82.1-0.8
	c25.1-6.4,126.1-68.3,145.7-58.5c8.9,4.5,1.6,34.5,17.5,45.3c19.4,13.1,62,3.8,82.5-0.3c16.1-3.2,127.4-40.4,127.4-46.7
	c0.2,50.2,25.6,56.4,79.5,48.3c18.1-2.7,123.1-47,127.2-42c8,9.6-11.8,19.6,0.7,31.6c9.4,9,19,11,31.4,14
	c36.2,8.8,79.9-5,113.7-17.7c7-2.6,59.6-35.6,61.5-34.9c11,4,1.7,21.5,9.4,28.3c12.7,11.2,23.1,13.4,39.7,17.4v11.8
	c-12.3-1.2-23.9-4.5-34.9-10.1c-9.4-5.8-15.6-14-18.5-24.7c-10.6-2.1-40.4,17.2-49.6,20.8c-37.7,14.8-113.3,39.5-151.5,10.2
	c-11.4-8.8-9.9-24.9-20.2-29.2c-12.9-5.3-77.1,27.2-94.7,30.8c-23.6,4.8-54.3,13.1-77.2,2.2c-3-1.4-50.6-35-34.4-40.6
	c-46.9,16.2-86.4,41.8-137.7,45c-10.3,0.7-43.1,2.1-54.3-4.2c-18.8-10.6-15.9-33.1-26.2-39.8c-16.3-10.6-133.9,53.6-159.4,57.1
	c-19,2.6-49.3,6.7-66.3-5.9c-14.3-10.7-14.2-42.4-22.8-47.7c-15.9-9.7-126.3,47.1-155,46.3c-46.5-1.3-65.3-20.6-67.5-66.3
	c-54.8,16.3-99.2,50.5-158.9,52.3c-19.1,0.6-51.4,0.6-66.2-14.7c-20.4-21.2,2.3-48.2-22.1-53.1c-41.9-8.5-304.8,162-281.5,9.2
	l0.3-0.2L270.5,831.3L270.5,831.3z"/>
<path class="st0" d="M301.6,723c-33.1,15.1-255.4,116.5-214.4,4.1l0.3,0.1l-0.2-0.1c-49.3,20.9-98.6,41.7-148,62.6
	c-1.4,0.6-3.1,0.7-4.6,1c0-3.2,0-6.5,0-9.7c17-7,187.7-82.6,189.4-78.9c4,8.3-31,25.6-31.5,41.6c-1,29.3,21.2,27.4,50.3,26.5
	c64.2-1.8,111-53.5,170.8-61.1c1.4,25.3-13.4,38.3,8,55.7c25.4,20.5,89.5,5.6,115.5-1.8c20.7-5.9,153.4-79.5,169.2-63.5
	c9.6,9.7-9.4,41.3,0.9,56c13.3,19,49.9,17.5,69,16.5C697,771,842,713,844.7,716.9c6,8.6-9,33.2,1.1,49
	c13.9,21.8,42.2,21.5,64.5,19.9c28.5-2,129.2-58.4,148.7-47.7c13.2,7.2,3.7,39.1,23.1,51.4c21.2,13.4,60,4.9,82.1-0.8
	c25.1-6.4,126.1-68.3,145.7-58.5c8.9,4.5,1.6,34.5,17.5,45.3c19.4,13.1,62,3.8,82.5-0.3c16.1-3.2,127.4-40.4,127.4-46.7
	c0.2,50.2,25.6,56.4,79.5,48.3c18.1-2.7,123.1-47,127.2-42c8,9.6-11.8,19.6,0.7,31.6c9.4,9,19,11,31.4,14
	c36.2,8.8,79.9-5,113.7-17.7c7-2.6,59.6-35.6,61.5-34.9c11,4,1.7,21.5,9.4,28.3c12.7,11.2,23.1,13.4,39.7,17.4v11.8
	c-12.3-1.2-23.9-4.5-34.9-10.1c-9.4-5.8-15.6-14-18.5-24.7c-10.6-2.1-40.4,17.2-49.6,20.8c-37.7,14.8-113.3,39.5-151.5,10.2
	c-11.4-8.8-9.9-24.9-20.2-29.2c-12.9-5.3-77.1,27.2-94.7,30.8c-23.6,4.8-54.3,13.1-77.2,2.2c-3-1.4-50.6-35-34.4-40.6
	c-46.9,16.2-86.4,41.8-137.7,45c-10.3,0.7-43.1,2.1-54.3-4.2c-18.8-10.6-15.9-33.1-26.2-39.8c-16.3-10.6-133.9,53.6-159.4,57.1
	c-19,2.6-49.3,6.7-66.3-5.9c-14.3-10.7-14.2-42.4-22.8-47.7c-15.9-9.7-126.3,47.1-155,46.3c-46.5-1.3-65.3-20.6-67.5-66.3
	c-54.8,16.3-99.2,50.5-158.9,52.3c-19.1,0.6-51.4,0.6-66.2-14.7c-20.4-21.2,2.3-48.2-22.1-53.1c-41.9-8.5-304.8,162-281.5,9.2
	l0.3-0.2L301.6,723L301.6,723z"/>
<polygon class="st0" points="214.9,781.6 215.1,781.3 214.8,781.5 "/>
<path class="st0" d="M141.9,790.4l0.2,0.1C142.1,790.5,141.9,790.4,141.9,790.4L141.9,790.4z"/>
</svg>
