<?xml version="1.0" encoding="UTF-8"?>
<svg id="Layer_1" data-name="Layer 1" xmlns="http://www.w3.org/2000/svg" viewBox="0 0 1366 768">
  <defs>
    <style>
      .cls-1 {
        fill: #e7ead7;
        stroke-width: 0px;
      }
    </style>
  </defs>
  <path class="cls-1" d="M1200.63,672.49c24.68,11.23,190.27,86.78,159.76,3.04l-.21.05.13-.05c36.74,15.55,73.48,31.1,110.24,46.61,1.07.45,2.29.51,3.45.76,0-2.4,0-4.8,0-7.2-12.64-5.19-139.82-61.55-141.12-58.81-2.95,6.21,23.07,19.08,23.49,31.02.75,21.8-15.82,20.4-37.5,19.78-47.86-1.36-82.67-39.88-127.25-45.5-1.01,18.85,10,28.54-5.98,41.49-18.89,15.31-66.7,4.19-86.03-1.33-15.41-4.41-114.25-59.24-126.07-47.33-7.14,7.2,7.03,30.77-.66,41.75-9.91,14.15-37.2,13.04-51.41,12.28-15.36-.81-123.38-44.06-125.39-41.15-4.43,6.41,6.68,24.71-.84,36.48-10.36,16.2-31.4,16-48.05,14.8-21.25-1.53-96.24-43.54-110.77-35.53-9.8,5.39-2.78,29.15-17.22,38.28-15.8,9.99-44.67,3.62-61.18-.58-18.73-4.78-93.93-50.87-108.55-43.57-6.64,3.32-1.21,25.72-13.07,33.75-14.44,9.79-46.16,2.86-61.44-.19-11.96-2.38-94.91-30.07-94.89-34.82-.19,37.43-19.06,42.02-59.2,36-13.45-2.01-91.69-35-94.8-31.29-5.97,7.12,8.81,14.58-.54,23.57-7.01,6.74-14.15,8.21-23.36,10.46-26.98,6.59-59.5-3.72-84.72-13.19-5.2-1.95-44.4-26.54-45.81-26.02-8.17,3-1.3,16.01-7.02,21.06-9.49,8.38-17.21,10-29.57,12.97v8.8c9.17-.88,17.84-3.39,26.02-7.54,7.02-4.31,11.61-10.44,13.77-18.42,7.93-1.56,30.13,12.82,36.98,15.52,28.1,11.06,84.42,29.45,112.86,7.63,8.5-6.53,7.39-18.58,15.08-21.75,9.59-3.96,57.41,20.27,70.58,22.97,17.55,3.59,40.45,9.77,57.52,1.62,2.23-1.07,37.72-26.07,25.65-30.24,34.91,12.05,64.37,31.12,102.57,33.54,7.65.48,32.1,1.55,40.44-3.14,14.01-7.88,11.87-24.67,19.52-29.63,12.16-7.89,99.75,39.9,118.74,42.51,14.13,1.94,36.73,5.02,49.4-4.42,10.66-7.95,10.6-31.59,17.01-35.5,11.85-7.23,94.06,35.09,115.45,34.48,34.66-.99,48.64-15.38,50.25-49.4,40.81,12.14,73.92,37.63,118.37,38.97,14.23.42,38.31.48,49.29-10.93,15.22-15.82-1.71-35.91,16.43-39.58,31.18-6.32,227.08,120.7,209.7,6.87l-.19-.13.12.19v-.02Z"/>
  <path class="cls-1" d="M1159.66,601.83c24.68,11.23,190.27,86.78,159.76,3.04l-.21.05.13-.05c36.74,15.55,73.48,31.1,110.24,46.61,1.07.45,2.29.51,3.45.76,0-2.4,0-4.8,0-7.2-12.64-5.19-139.82-61.55-141.12-58.81-2.95,6.21,23.07,19.08,23.49,31.02.75,21.8-15.82,20.4-37.5,19.78-47.86-1.36-82.67-39.88-127.25-45.5-1.01,18.85,10,28.54-5.98,41.49-18.89,15.31-66.7,4.19-86.03-1.33-15.41-4.41-114.25-59.24-126.07-47.33-7.14,7.2,7.03,30.77-.66,41.75-9.91,14.15-37.2,13.04-51.41,12.28-15.36-.81-123.38-44.06-125.39-41.15-4.43,6.41,6.68,24.71-.84,36.48-10.36,16.2-31.4,16-48.05,14.8-21.25-1.53-96.24-43.54-110.77-35.53-9.8,5.39-2.78,29.15-17.22,38.28-15.8,9.99-44.67,3.62-61.18-.58-18.73-4.78-93.93-50.87-108.55-43.57-6.64,3.32-1.21,25.72-13.07,33.75-14.44,9.79-46.16,2.86-61.44-.19-11.96-2.38-94.91-30.07-94.89-34.82-.19,37.43-19.06,42.02-59.2,36-13.45-2.01-91.69-35-94.8-31.29-5.97,7.12,8.81,14.58-.54,23.57-7.01,6.74-14.15,8.21-23.36,10.46-26.98,6.59-59.5-3.72-84.72-13.19-5.2-1.95-44.4-26.54-45.81-26.02-8.17,3-1.3,16.01-7.02,21.06-9.49,8.38-17.21,10-29.57,12.97v8.8c9.17-.88,17.84-3.39,26.02-7.54,7.02-4.31,11.61-10.44,13.77-18.42,7.93-1.56,30.13,12.82,36.98,15.52,28.1,11.06,84.42,29.45,112.86,7.63,8.5-6.53,7.39-18.58,15.08-21.75,9.59-3.96,57.41,20.27,70.58,22.97,17.55,3.59,40.45,9.77,57.52,1.62,2.23-1.07,37.72-26.07,25.65-30.24,34.91,12.05,64.37,31.12,102.57,33.54,7.65.48,32.1,1.55,40.44-3.14,14.01-7.88,11.87-24.67,19.52-29.63,12.16-7.89,99.75,39.9,118.74,42.51,14.13,1.94,36.73,5.02,49.4-4.42,10.66-7.95,10.6-31.59,17.01-35.5,11.85-7.23,94.06,35.09,115.45,34.48,34.66-.99,48.64-15.38,50.25-49.4,40.81,12.14,73.92,37.63,118.37,38.97,14.23.42,38.31.48,49.29-10.93,15.22-15.82-1.71-35.91,16.43-39.58,31.18-6.32,227.08,120.7,209.7,6.87l-.19-.13.12.19v-.02Z"/>
  <path class="cls-1" d="M1136.57,521.14c24.68,11.23,190.27,86.78,159.76,3.04l-.21.05.13-.05c36.74,15.55,73.48,31.1,110.24,46.61,1.07.45,2.29.51,3.45.76v-7.2c-12.64-5.19-139.82-61.55-141.12-58.81-2.95,6.21,23.07,19.08,23.49,31.02.75,21.8-15.82,20.4-37.5,19.78-47.86-1.36-82.67-39.88-127.25-45.5-1.01,18.85,10,28.54-5.98,41.49-18.89,15.31-66.7,4.19-86.03-1.33-15.41-4.41-114.25-59.24-126.07-47.33-7.14,7.2,7.03,30.77-.66,41.75-9.91,14.15-37.2,13.04-51.41,12.28-15.36-.81-123.38-44.06-125.39-41.15-4.43,6.41,6.68,24.71-.84,36.48-10.36,16.2-31.4,16-48.05,14.8-21.25-1.53-96.24-43.54-110.77-35.53-9.8,5.39-2.78,29.15-17.22,38.28-15.8,9.99-44.67,3.62-61.18-.58-18.73-4.78-93.93-50.87-108.55-43.57-6.64,3.32-1.21,25.72-13.07,33.75-14.44,9.79-46.16,2.86-61.44-.19-11.96-2.38-94.91-30.07-94.89-34.82-.19,37.43-19.06,42.02-59.2,36-13.45-2.01-91.69-35-94.8-31.29-5.97,7.12,8.81,14.58-.54,23.57-7.01,6.74-14.15,8.21-23.36,10.46-26.98,6.59-59.5-3.72-84.72-13.19-5.2-1.95-44.4-26.54-45.81-26.02-8.17,3-1.3,16.01-7.02,21.06-9.49,8.38-17.21,10-29.57,12.97v8.8c9.17-.88,17.84-3.39,26.02-7.54,7.02-4.31,11.61-10.44,13.77-18.42,7.93-1.56,30.13,12.82,36.98,15.52,28.1,11.06,84.42,29.45,112.86,7.63,8.5-6.53,7.39-18.58,15.08-21.75,9.59-3.96,57.41,20.27,70.58,22.97,17.55,3.59,40.45,9.77,57.52,1.62,2.23-1.07,37.72-26.07,25.65-30.24,34.91,12.05,64.37,31.12,102.57,33.54,7.65.48,32.1,1.55,40.44-3.14,14.01-7.88,11.87-24.67,19.52-29.63,12.16-7.89,99.75,39.9,118.74,42.51,14.13,1.94,36.73,5.02,49.4-4.42,10.66-7.95,10.6-31.59,17.01-35.5,11.85-7.23,94.06,35.09,115.45,34.48,34.66-.99,48.64-15.38,50.25-49.4,40.81,12.14,73.92,37.63,118.37,38.97,14.23.42,38.31.48,49.29-10.93,15.22-15.82-1.71-35.91,16.43-39.58,31.18-6.32,227.08,120.7,209.7,6.87l-.19-.13.12.19v-.02Z"/>
  <polygon class="cls-1" points="1200.86 564.78 1200.74 564.59 1200.93 564.71 1200.86 564.78"/>
  <path class="cls-1" d="M1255.19,571.27l-.13.04s.19-.04.19-.04h-.07Z"/>
</svg>